{"asset":{"version":"2.0","generator":"atc-wildlands-authoring"},"scene":0,"scenes":[{"nodes":[0]}],"nodes":[{"mesh":0,"name":"wildlands-prop"}],"meshes":[{"primitives":[{"attributes":{"POSITION":0,"NORMAL":1},"indices":2,"material":0}]}],"materials":[{"pbrMetallicRoughness":{"baseColorFactor":[0.98,0.79,0.24,1],"metallicFactor":0.6,"roughnessFactor":0.3},"emissiveFactor":[0.35,0.26,0.04],"doubleSided":true}],"accessors":[{"bufferView":0,"componentType":5126,"count":100,"type":"VEC3","min":[-0.34,-0.06,-0.32335921554035224],"max":[0.34,0.06,0.32335921554035224]},{"bufferView":1,"componentType":5126,"count":100,"type":"VEC3"},{"bufferView":2,"componentType":5125,"count":120,"type":"SCALAR"}],"bufferViews":[{"buffer":0,"byteOffset":0,"byteLength":1200,"target":34962},{"buffer":0,"byteOffset":1200,"byteLength":1200,"target":34962},{"buffer":0,"byteOffset":2400,"byteLength":480,"target":34963}],"buffers":[{"byteLength":2880,"uri":"data:application/octet-stream;base64,"}]}
