{"asset":{"version":"2.0","generator":"atc-wildlands-authoring"},"scene":0,"scenes":[{"nodes":[0]}],"nodes":[{"mesh":0,"name":"wildlands-prop"}],"meshes":[{"primitives":[{"attributes":{"POSITION":0,"NORMAL":1},"indices":2,"material":0},{"attributes":{"POSITION":3,"NORMAL":4},"indices":5,"material":1}]}],"materials":[{"pbrMetallicRoughness":{"baseColorFactor":[0.32,0.46,0.22,1],"metallicFactor":0,"roughnessFactor":0.92},"emissiveFactor":[0,0,0],"doubleSided":true},{"pbrMetallicRoughness":{"baseColorFactor":[0.24,0.37,0.18,1],"metallicFactor":0,"roughnessFactor":0.92},"emissiveFactor":[0,0,0],"doubleSided":true}],"accessors":[{"bufferView":0,"componentType":5126,"count":24,"type":"VEC3","min":[-130,-1,-130],"max":[130,0,130]},{"bufferView":1,"componentType":5126,"count":24,"type":"VEC3"},{"bufferView":2,"componentType":5125,"count":36,"type":"SCALAR"},{"bufferView":3,"componentType":5126,"count":1820,"type":"VEC3","min":[-46.03557710856576,0.008,-38.84100430678573],"max":[40.25245079572835,0.012,43.0006296488232]},{"bufferView":4,"componentType":5126,"count":1820,"type":"VEC3"},{"bufferView":5,"componentType":5125,"count":2184,"type":"SCALAR"}],"bufferViews":[{"buffer":0,"byteOffset":0,"byteLength":288,"target":34962},{"buffer":0,"byteOffset":288,"byteLength":288,"target":34962},{"buffer":0,"byteOffset":576,"byteLength":144,"target":34963},{"buffer":0,"byteOffset":720,"byteLength":21840,"target":34962},{"buffer":0,"byteOffset":22560,"byteLength":21840,"target":34962},{"buffer":0,"byteOffset":44400,"byteLength":8736,"target":34963}],"buffers":[{"byteLength":53136,"uri":"data:application/octet-stream;base64,"}]}
