{"asset":{"version":"2.0","generator":"atc-wildlands-authoring"},"scene":0,"scenes":[{"nodes":[0]}],"nodes":[{"mesh":0,"name":"wildlands-prop"}],"meshes":[{"primitives":[{"attributes":{"POSITION":0,"NORMAL":1},"indices":2,"material":0}]}],"materials":[{"pbrMetallicRoughness":{"baseColorFactor":[0.24,0.37,0.18,1],"metallicFactor":0,"roughnessFactor":0.92},"emissiveFactor":[0,0,0],"doubleSided":true}],"accessors":[{"bufferView":0,"componentType":5126,"count":240,"type":"VEC3","min":[-8.768507213317442,0,-8.963362929168937],"max":[9,3.5,8.573651497465942]},{"bufferView":1,"componentType":5126,"count":240,"type":"VEC3"},{"bufferView":2,"componentType":5125,"count":288,"type":"SCALAR"}],"bufferViews":[{"buffer":0,"byteOffset":0,"byteLength":2880,"target":34962},{"buffer":0,"byteOffset":2880,"byteLength":2880,"target":34962},{"buffer":0,"byteOffset":5760,"byteLength":1152,"target":34963}],"buffers":[{"byteLength":6912,"uri":"data:application/octet-stream;base64,"}]}
