{"asset":{"version":"2.0","generator":"atc-wildlands-authoring"},"scene":0,"scenes":[{"nodes":[0]}],"nodes":[{"mesh":0,"name":"wildlands-prop"}],"meshes":[{"primitives":[{"attributes":{"POSITION":0,"NORMAL":1},"indices":2,"material":0},{"attributes":{"POSITION":3,"NORMAL":4},"indices":5,"material":1},{"attributes":{"POSITION":6,"NORMAL":7},"indices":8,"material":2}]}],"materials":[{"pbrMetallicRoughness":{"baseColorFactor":[0.32,0.32,0.33,1],"metallicFactor":0,"roughnessFactor":0.92},"emissiveFactor":[0,0,0],"doubleSided":true},{"pbrMetallicRoughness":{"baseColorFactor":[0.51,0.47,0.55,1],"metallicFactor":0,"roughnessFactor":0.92},"emissiveFactor":[0,0,0],"doubleSided":true},{"pbrMetallicRoughness":{"baseColorFactor":[0.95,0.78,0.32,1],"metallicFactor":0,"roughnessFactor":0.4},"emissiveFactor":[0.35,0.24,0.05],"doubleSided":true}],"accessors":[{"bufferView":0,"componentType":5126,"count":314,"type":"VEC3","min":[-4.886401628086724,-0.5004774264270672,-5.1210003156634825],"max":[5.2,2.4007916226378874,5.121000315663482]},{"bufferView":1,"componentType":5126,"count":314,"type":"VEC3"},{"bufferView":2,"componentType":5125,"count":444,"type":"SCALAR"},{"bufferView":3,"componentType":5126,"count":70,"type":"VEC3","min":[-1.3514533018536288,1.1,-1.4623918682727355],"max":[1.5,13.6,1.4623918682727355]},{"bufferView":4,"componentType":5126,"count":70,"type":"VEC3"},{"bufferView":5,"componentType":5125,"count":84,"type":"SCALAR"},{"bufferView":6,"componentType":5126,"count":36,"type":"VEC3","min":[-0.7,13.6,-0.606217782649107],"max":[0.7,15.1,0.6062177826491071]},{"bufferView":7,"componentType":5126,"count":36,"type":"VEC3"},{"bufferView":8,"componentType":5125,"count":36,"type":"SCALAR"}],"bufferViews":[{"buffer":0,"byteOffset":0,"byteLength":3768,"target":34962},{"buffer":0,"byteOffset":3768,"byteLength":3768,"target":34962},{"buffer":0,"byteOffset":7536,"byteLength":1776,"target":34963},{"buffer":0,"byteOffset":9312,"byteLength":840,"target":34962},{"buffer":0,"byteOffset":10152,"byteLength":840,"target":34962},{"buffer":0,"byteOffset":10992,"byteLength":336,"target":34963},{"buffer":0,"byteOffset":11328,"byteLength":432,"target":34962},{"buffer":0,"byteOffset":11760,"byteLength":432,"target":34962},{"buffer":0,"byteOffset":12192,"byteLength":144,"target":34963}],"buffers":[{"byteLength":12336,"uri":"data:application/octet-stream;base64,"}]}
