{"asset":{"version":"2.0","generator":"atc-wildlands-authoring"},"scene":0,"scenes":[{"nodes":[0]}],"nodes":[{"mesh":0,"name":"wildlands-prop"}],"meshes":[{"primitives":[{"attributes":{"POSITION":0,"NORMAL":1},"indices":2,"material":0},{"attributes":{"POSITION":3,"NORMAL":4},"indices":5,"material":1}]}],"materials":[{"pbrMetallicRoughness":{"baseColorFactor":[0.32,0.32,0.33,1],"metallicFactor":0,"roughnessFactor":0.92},"emissiveFactor":[0,0,0],"doubleSided":true},{"pbrMetallicRoughness":{"baseColorFactor":[0.86,0.88,0.92,1],"metallicFactor":0,"roughnessFactor":0.92},"emissiveFactor":[0,0,0],"doubleSided":true}],"accessors":[{"bufferView":0,"componentType":5126,"count":90,"type":"VEC3","min":[-12.366354889542556,0,-13.944877782652869],"max":[15.16,22,11.482858400122346]},{"bufferView":1,"componentType":5126,"count":90,"type":"VEC3"},{"bufferView":2,"componentType":5125,"count":108,"type":"SCALAR"},{"bufferView":3,"componentType":5126,"count":90,"type":"VEC3","min":[-3.3828934348292705,17.5,-3.5453079108439494],"max":[3.6,22.1,3.545307910843949]},{"bufferView":4,"componentType":5126,"count":90,"type":"VEC3"},{"bufferView":5,"componentType":5125,"count":108,"type":"SCALAR"}],"bufferViews":[{"buffer":0,"byteOffset":0,"byteLength":1080,"target":34962},{"buffer":0,"byteOffset":1080,"byteLength":1080,"target":34962},{"buffer":0,"byteOffset":2160,"byteLength":432,"target":34963},{"buffer":0,"byteOffset":2592,"byteLength":1080,"target":34962},{"buffer":0,"byteOffset":3672,"byteLength":1080,"target":34962},{"buffer":0,"byteOffset":4752,"byteLength":432,"target":34963}],"buffers":[{"byteLength":5184,"uri":"data:application/octet-stream;base64,"}]}
