{"asset":{"version":"2.0","generator":"atc-wildlands-authoring"},"scene":0,"scenes":[{"nodes":[0]}],"nodes":[{"mesh":0,"name":"wildlands-prop"}],"meshes":[{"primitives":[{"attributes":{"POSITION":0,"NORMAL":1},"indices":2,"material":0}]}],"materials":[{"pbrMetallicRoughness":{"baseColorFactor":[0.45,0.44,0.42,1],"metallicFactor":0,"roughnessFactor":0.92},"emissiveFactor":[0,0,0],"doubleSided":true}],"accessors":[{"bufferView":0,"componentType":5126,"count":224,"type":"VEC3","min":[-1.1473231294752164,-0.5000430742987896,-0.938290068053919],"max":[1.4873865798967891,1.474679998140107,1.0335979519900236]},{"bufferView":1,"componentType":5126,"count":224,"type":"VEC3"},{"bufferView":2,"componentType":5125,"count":336,"type":"SCALAR"}],"bufferViews":[{"buffer":0,"byteOffset":0,"byteLength":2688,"target":34962},{"buffer":0,"byteOffset":2688,"byteLength":2688,"target":34962},{"buffer":0,"byteOffset":5376,"byteLength":1344,"target":34963}],"buffers":[{"byteLength":6720,"uri":"data:application/octet-stream;base64,"}]}
