{"asset":{"version":"2.0","generator":"atc-wildlands-authoring"},"scene":0,"scenes":[{"nodes":[0]}],"nodes":[{"mesh":0,"name":"wildlands-prop"}],"meshes":[{"primitives":[{"attributes":{"POSITION":0,"NORMAL":1},"indices":2,"material":0},{"attributes":{"POSITION":3,"NORMAL":4},"indices":5,"material":1},{"attributes":{"POSITION":6,"NORMAL":7},"indices":8,"material":2}]}],"materials":[{"pbrMetallicRoughness":{"baseColorFactor":[0.28,0.2,0.13,1],"metallicFactor":0,"roughnessFactor":0.92},"emissiveFactor":[0,0,0],"doubleSided":true},{"pbrMetallicRoughness":{"baseColorFactor":[0.16,0.42,0.85,1],"metallicFactor":0,"roughnessFactor":0.92},"emissiveFactor":[0,0,0],"doubleSided":true},{"pbrMetallicRoughness":{"baseColorFactor":[1,0.82,0.42,1],"metallicFactor":0,"roughnessFactor":0.3},"emissiveFactor":[1,0.82,0.42],"doubleSided":true}],"accessors":[{"bufferView":0,"componentType":5126,"count":120,"type":"VEC3","min":[-2.31,0,-1.7100000000000002],"max":[2.31,2.6,1.85]},{"bufferView":1,"componentType":5126,"count":120,"type":"VEC3"},{"bufferView":2,"componentType":5125,"count":180,"type":"SCALAR"},{"bufferView":3,"componentType":5126,"count":64,"type":"VEC3","min":[-3.2,2.61,-3.2],"max":[3.2,4.4,3.2]},{"bufferView":4,"componentType":5126,"count":64,"type":"VEC3"},{"bufferView":5,"componentType":5125,"count":84,"type":"SCALAR"},{"bufferView":6,"componentType":5126,"count":48,"type":"VEC3","min":[-2.37,2.5300000000000002,-1.77],"max":[2.37,2.87,1.77]},{"bufferView":7,"componentType":5126,"count":48,"type":"VEC3"},{"bufferView":8,"componentType":5125,"count":72,"type":"SCALAR"}],"bufferViews":[{"buffer":0,"byteOffset":0,"byteLength":1440,"target":34962},{"buffer":0,"byteOffset":1440,"byteLength":1440,"target":34962},{"buffer":0,"byteOffset":2880,"byteLength":720,"target":34963},{"buffer":0,"byteOffset":3600,"byteLength":768,"target":34962},{"buffer":0,"byteOffset":4368,"byteLength":768,"target":34962},{"buffer":0,"byteOffset":5136,"byteLength":336,"target":34963},{"buffer":0,"byteOffset":5472,"byteLength":576,"target":34962},{"buffer":0,"byteOffset":6048,"byteLength":576,"target":34962},{"buffer":0,"byteOffset":6624,"byteLength":288,"target":34963}],"buffers":[{"byteLength":6912,"uri":"data:application/octet-stream;base64,"}]}
