{"asset":{"version":"2.0","generator":"atc-wildlands-authoring"},"scene":0,"scenes":[{"nodes":[0]}],"nodes":[{"mesh":0,"name":"wildlands-prop"}],"meshes":[{"primitives":[{"attributes":{"POSITION":0,"NORMAL":1},"indices":2,"material":0},{"attributes":{"POSITION":3,"NORMAL":4},"indices":5,"material":1}]}],"materials":[{"pbrMetallicRoughness":{"baseColorFactor":[0.28,0.2,0.13,1],"metallicFactor":0,"roughnessFactor":0.92},"emissiveFactor":[0,0,0],"doubleSided":true},{"pbrMetallicRoughness":{"baseColorFactor":[0.2,0.42,0.19,1],"metallicFactor":0,"roughnessFactor":0.92},"emissiveFactor":[0,0,0],"doubleSided":true}],"accessors":[{"bufferView":0,"componentType":5126,"count":60,"type":"VEC3","min":[-0.28,0,-0.24248711305964282],"max":[0.28,2.6,0.24248711305964285]},{"bufferView":1,"componentType":5126,"count":60,"type":"VEC3"},{"bufferView":2,"componentType":5125,"count":72,"type":"SCALAR"},{"bufferView":3,"componentType":5126,"count":224,"type":"VEC3","min":[-1.9061823938535403,1.7697393448022891,-1.9772095192420993],"max":[1.690183015291579,5.397575051879627,1.4844380145085885]},{"bufferView":4,"componentType":5126,"count":224,"type":"VEC3"},{"bufferView":5,"componentType":5125,"count":336,"type":"SCALAR"}],"bufferViews":[{"buffer":0,"byteOffset":0,"byteLength":720,"target":34962},{"buffer":0,"byteOffset":720,"byteLength":720,"target":34962},{"buffer":0,"byteOffset":1440,"byteLength":288,"target":34963},{"buffer":0,"byteOffset":1728,"byteLength":2688,"target":34962},{"buffer":0,"byteOffset":4416,"byteLength":2688,"target":34962},{"buffer":0,"byteOffset":7104,"byteLength":1344,"target":34963}],"buffers":[{"byteLength":8448,"uri":"data:application/octet-stream;base64,"}]}
