{"asset":{"version":"2.0","generator":"atc-wildlands-authoring"},"scene":0,"scenes":[{"nodes":[0]}],"nodes":[{"mesh":0,"name":"wildlands-prop"}],"meshes":[{"primitives":[{"attributes":{"POSITION":0,"NORMAL":1},"indices":2,"material":0},{"attributes":{"POSITION":3,"NORMAL":4},"indices":5,"material":1}]}],"materials":[{"pbrMetallicRoughness":{"baseColorFactor":[0.28,0.2,0.13,1],"metallicFactor":0,"roughnessFactor":0.92},"emissiveFactor":[0,0,0],"doubleSided":true},{"pbrMetallicRoughness":{"baseColorFactor":[0.14,0.31,0.2,1],"metallicFactor":0,"roughnessFactor":0.92},"emissiveFactor":[0,0,0],"doubleSided":true}],"accessors":[{"bufferView":0,"componentType":5126,"count":60,"type":"VEC3","min":[-0.24,0,-0.20784609690826525],"max":[0.24,1.4,0.20784609690826528]},{"bufferView":1,"componentType":5126,"count":60,"type":"VEC3"},{"bufferView":2,"componentType":5125,"count":72,"type":"SCALAR"},{"bufferView":3,"componentType":5126,"count":144,"type":"VEC3","min":[-1.55,1.1,-1.55],"max":[1.55,5.6,1.55]},{"bufferView":4,"componentType":5126,"count":144,"type":"VEC3"},{"bufferView":5,"componentType":5125,"count":144,"type":"SCALAR"}],"bufferViews":[{"buffer":0,"byteOffset":0,"byteLength":720,"target":34962},{"buffer":0,"byteOffset":720,"byteLength":720,"target":34962},{"buffer":0,"byteOffset":1440,"byteLength":288,"target":34963},{"buffer":0,"byteOffset":1728,"byteLength":1728,"target":34962},{"buffer":0,"byteOffset":3456,"byteLength":1728,"target":34962},{"buffer":0,"byteOffset":5184,"byteLength":576,"target":34963}],"buffers":[{"byteLength":5760,"uri":"data:application/octet-stream;base64,"}]}
