{
  "asset": { "version": "2.0", "generator": "animation-test-chamber" },
  "scene": 0,
  "scenes": [{ "nodes": [0] }],
  "nodes": [{ "mesh": 0, "name": "Grid Floor" }],
  "meshes": [{
    "primitives": [
      { "attributes": { "POSITION": 0 }, "material": 0, "mode": 6 },
      { "attributes": { "POSITION": 1 }, "material": 1, "mode": 1 }
    ]
  }],
  "materials": [
    {
      "name": "Floor",
      "pbrMetallicRoughness": {
        "baseColorFactor": [0.12, 0.15, 0.2, 1],
        "metallicFactor": 0,
        "roughnessFactor": 0.9
      },
      "doubleSided": true
    },
    {
      "name": "Grid",
      "pbrMetallicRoughness": {
        "baseColorFactor": [0.35, 0.65, 0.8, 1],
        "metallicFactor": 0,
        "roughnessFactor": 1
      },
      "emissiveFactor": [0.08, 0.18, 0.24]
    }
  ],
  "buffers": [{
    "byteLength": 1056,
    "uri": "data:application/octet-stream;base64,"
  }],
  "bufferViews": [
    { "buffer": 0, "byteOffset": 0, "byteLength": 48, "target": 34962 },
    { "buffer": 0, "byteOffset": 48, "byteLength": 1008, "target": 34962 }
  ],
  "accessors": [
    {
      "bufferView": 0,
      "componentType": 5126,
      "count": 4,
      "type": "VEC3",
      "min": [-10, 0, -10],
      "max": [10, 0, 10]
    },
    {
      "bufferView": 1,
      "componentType": 5126,
      "count": 84,
      "type": "VEC3",
      "min": [-10, 0.01, -10],
      "max": [10, 0.01, 10]
    }
  ]
}
